<svg xmlns="http://www.w3.org/2000/svg" version="1.1" xmlns:xlink="http://www.w3.org/1999/xlink" xmlns:svgjs="http://svgjs.dev/svgjs" width="2000" height="1952" viewBox="0 0 2000 1952"><g transform="matrix(1,0,0,1,-0.8690278445021704,1.6835240513238432)"><svg viewBox="0 0 254 248" data-background-color="#89939e" preserveAspectRatio="xMidYMid meet" height="1952" width="2000" xmlns="http://www.w3.org/2000/svg" xmlns:xlink="http://www.w3.org/1999/xlink"><g id="tight-bounds" transform="matrix(1,0,0,1,0.1103665362517745,0.4000000000000057)"><svg viewBox="0 0 253.77926692749648 247.2" height="247.2" width="253.77926692749648"><g><svg viewBox="0 0 395.52 385.2660825438239" height="247.2" width="253.77926692749648"><g transform="matrix(1,0,0,1,0,188.97824135275698)"><svg viewBox="0 0 395.52 196.28784119106697" height="196.28784119106697" width="395.52"><g id="textblocktransform"><svg viewBox="0 0 395.52 196.28784119106697" height="196.28784119106697" width="395.52" id="textblock"><g><svg viewBox="0 0 395.52 196.28784119106697" height="196.28784119106697" width="395.52"><g transform="matrix(1,0,0,1,0,0)"><svg width="395.52" viewBox="1 -40 80.6 40" height="196.28784119106697" data-palette-color="#000000"><path d="M1 0L30.5 0 35.15-4.65 35.15-16.35 31-20.5 35.15-24.65 35.15-35.35 30.5-40 1-40 1-38 5-38 5-2 1-2 1 0ZM16.5-21.5L16.5-38 23.65-38 23.65-21.5 16.5-21.5ZM16.5-2L16.5-19.5 23.65-19.5 23.65-2 16.5-2ZM78.2-2L81.6-2 81.6 0 60.9 0 60.9-2 66.25-2 62.05-15 48.2-15 43.95-2 49.05-2 49.05 0 38.15 0 38.15-2 41.55-2 53.9-40 65.85-40 78.2-2ZM48.85-17L61.4-17 55.1-36.3 48.85-17Z" opacity="1" transform="matrix(1,0,0,1,0,0)" fill="#000000" class="wordmark-text-0" data-fill-palette-color="primary" id="text-0"></path></svg></g></svg></g></svg></g></svg></g><g transform="matrix(1,0,0,1,75.54431999999998,0)"><svg viewBox="0 0 244.43136 142.63939295573465" height="142.63939295573465" width="244.43136"><g><svg xmlns="http://www.w3.org/2000/svg" xmlns:xlink="http://www.w3.org/1999/xlink" version="1.1" x="8" y="0" viewBox="-2.435429092741941e-7 18.78899975199379 100.00000121676717 62.443000248006214" enable-background="new 0 0 100 100" xml:space="preserve" id="icon-0" width="228.43136" height="142.63939295573465" class="icon-icon-0" data-fill-palette-color="accent"><g fill="#000000" data-fill-palette-color="accent"><g fill="#000000" data-fill-palette-color="accent"><path d="M97.938 68.771H91.622V20.81A2.02 2.02 0 0 0 89.601 18.789H10.399A2.02 2.02 0 0 0 8.378 20.81V68.771H2.062A2.06 2.06 0 0 0 0 70.832V72.916C0 73.019 0.008 73.12 0.022 73.222 0.549 76.743 3.37 80.669 7.181 81.144 7.264 81.154 7.35 81.161 7.433 81.161L91.943 81.232H91.946C96.35 81.232 99.55 77.035 99.987 73.147 99.996 73.072 100 72.995 100 72.917V70.833A2.06 2.06 0 0 0 97.938 68.771M12.42 22.831H87.58V68.77H59.985C59.852 68.77 59.723 68.786 59.599 68.81H41.16A2 2 0 0 0 40.764 68.77H12.42zM91.948 77.107L7.586 77.036C6.125 76.775 4.562 74.876 4.152 72.893H39.238C39.94 74.139 41.255 74.978 42.757 74.978H57.99C59.492 74.978 60.806 74.139 61.51 72.893H95.86C95.538 74.926 93.854 77.107 91.948 77.107M38.84 37.498A2.083 2.083 0 0 0 35.893 37.498L27.204 46.187A2.085 2.085 0 0 0 27.204 49.135L35.893 57.823A2.08 2.08 0 0 0 38.841 57.823 2.083 2.083 0 0 0 38.841 54.876L31.625 47.661 38.841 40.445A2.084 2.084 0 0 0 38.84 37.498M59.361 57.823A2.08 2.08 0 0 0 62.309 57.823L70.997 49.135A2.085 2.085 0 0 0 70.997 46.187L62.309 37.498A2.083 2.083 0 1 0 59.362 40.445L66.577 47.661 59.362 54.876A2.083 2.083 0 0 0 59.361 57.823M41.793 62.275A2.085 2.085 0 0 0 44.59 61.343L57.096 36.332A2.083 2.083 0 0 0 56.163 33.536 2.087 2.087 0 0 0 53.366 34.468L40.861 59.479A2.083 2.083 0 0 0 41.793 62.275" fill="#000000" data-fill-palette-color="accent"></path></g></g></svg></g></svg></g><g><rect width="4.673953463748234" height="17.70144008766253" y="123.93795286807213" x="319.97568" fill="#000000" data-fill-palette-color="accent"></rect><rect width="4.673953463748234" height="17.70144008766253" y="123.93795286807213" x="70.87036653625175" fill="#000000" data-fill-palette-color="accent"></rect><rect width="4.673953463748234" height="17.70144008766253" y="88.53507269274706" x="319.97568" fill="#000000" data-fill-palette-color="accent"></rect><rect width="4.673953463748234" height="17.70144008766253" y="88.53507269274706" x="70.87036653625175" fill="#000000" data-fill-palette-color="accent"></rect></g></svg></g><defs></defs></svg><rect width="253.77926692749648" height="247.2" fill="none" stroke="none" visibility="hidden"></rect></g></svg></g></svg>